<?xml version="1.0" encoding="UTF-8" standalone="no"?>
<svg width="270px" height="74px" viewBox="0 0 270 74" version="1.1" xmlns="http://www.w3.org/2000/svg" xmlns:xlink="http://www.w3.org/1999/xlink">
    <!-- Generator: Sketch 3.8.3 (29802) - http://www.bohemiancoding.com/sketch -->
    <title>Page 1</title>
    <desc>Created with Sketch.</desc>
    <defs>
        <polygon id="path-1" points="0 74.0266124 269.507492 74.0266124 269.507492 0 0 0"/>
    </defs>
    <g id="DIS-home" stroke="none" stroke-width="1" fill="none" fill-rule="evenodd">
        <g id="Home-HD" transform="translate(-153.000000, -63.000000)">
            <g id="Page-1" transform="translate(153.000000, 63.000000)">
                <path d="M97.2463485,19.5649739 C97.1012345,18.5315863 96.1118208,17.7453322 94.9772932,17.7453322 C92.9263485,17.7453322 92.1550456,19.4928567 92.1550456,21.3124984 C92.1550456,23.0450717 92.9263485,24.7925961 94.9772932,24.7925961 C96.3739055,24.7925961 97.1584007,23.8313257 97.3342964,22.4628567 L99.5444267,22.4628567 C99.3122443,25.0546808 97.5233844,26.7142573 94.9772932,26.7142573 C91.7619186,26.7142573 89.8710391,24.3124007 89.8710391,21.3124984 C89.8710391,18.2255277 91.7619186,15.823671 94.9772932,15.823671 C97.2612997,15.823671 99.181202,17.1631173 99.4573583,19.5649739 L97.2463485,19.5649739 L97.2463485,19.5649739 Z" id="Fill-1" fill="#7E7B7A"/>
                <path d="M104.532127,18.7353616 C106.903202,18.7353616 108.430857,20.3078697 108.430857,22.7106059 C108.430857,25.0983909 106.903202,26.670899 104.532127,26.670899 C102.175124,26.670899 100.648349,25.0983909 100.648349,22.7106059 C100.648349,20.3078697 102.175124,18.7353616 104.532127,18.7353616 M104.532127,25.1124625 C105.942811,25.1124625 106.364961,23.9040586 106.364961,22.7106059 C106.364961,21.502202 105.942811,20.2929186 104.532127,20.2929186 C103.135515,20.2929186 102.714244,21.502202 102.714244,22.7106059 C102.714244,23.9040586 103.135515,25.1124625 104.532127,25.1124625" id="Fill-3" fill="#7E7B7A"/>
                <path d="M109.767752,18.9389609 L111.730749,18.9389609 L111.730749,19.9872997 L111.774723,19.9872997 C112.298893,19.143 113.200358,18.7358013 114.072801,18.7358013 C116.270619,18.7358013 116.822052,19.973228 116.822052,21.8368436 L116.822052,26.4672997 L114.757036,26.4672997 L114.757036,22.2150195 C114.757036,20.9775928 114.393811,20.366355 113.43342,20.366355 C112.313844,20.366355 111.833648,20.9916645 111.833648,22.5210782 L111.833648,26.4672997 L109.767752,26.4672997 L109.767752,18.9389609 Z" id="Fill-5" fill="#7E7B7A"/>
                <path d="M119.992573,24.0207655 C120.007524,24.9231107 120.762997,25.2880945 121.578274,25.2880945 C122.17456,25.2880945 122.930912,25.0541531 122.930912,24.3268241 C122.930912,23.7006352 122.072541,23.481645 120.58886,23.1615147 C119.395407,22.89943 118.202834,22.4772801 118.202834,21.1519055 C118.202834,19.2302443 119.861531,18.7350977 121.475375,18.7350977 C123.12,18.7350977 124.632704,19.2882899 124.792769,21.1378339 L122.829772,21.1378339 C122.770847,20.3366287 122.159609,20.1185179 121.418208,20.1185179 C120.952964,20.1185179 120.269609,20.2055863 120.269609,20.8168241 C120.269609,21.5599837 121.43316,21.6620033 122.610782,21.9381596 C123.818306,22.2151954 124.996808,22.6522964 124.996808,24.0497883 C124.996808,26.0303746 123.280065,26.6706352 121.563322,26.6706352 C119.817557,26.6706352 118.115765,26.0154235 118.028697,24.0207655 L119.992573,24.0207655 Z" id="Fill-7" fill="#7E7B7A"/>
                <path d="M127.904453,23.2053127 C127.962498,24.5157362 128.602759,25.1129023 129.752238,25.1129023 C130.581586,25.1129023 131.25087,24.6028046 131.381033,24.1375603 L133.199795,24.1375603 C132.61758,25.9141075 131.381033,26.6704593 129.680121,26.6704593 C127.308166,26.6704593 125.838557,25.0399055 125.838557,22.7101661 C125.838557,20.4534235 127.396114,18.7349218 129.680121,18.7349218 C132.240283,18.7349218 133.475951,20.8905244 133.330837,23.2053127 L127.904453,23.2053127 Z M131.264941,21.8948893 C131.076733,20.8465505 130.62556,20.2933583 129.621195,20.2933583 C128.312531,20.2933583 127.933476,21.3126743 127.904453,21.8948893 L131.264941,21.8948893 Z" id="Fill-9" fill="#7E7B7A"/>
                <path d="M133.488792,27.3548697 C133.619834,27.3988436 133.765827,27.4129153 133.939964,27.4129153 C134.361235,27.4129153 134.74029,27.3117752 134.74029,26.7436319 L134.74029,18.9391368 L136.805306,18.9391368 L136.805306,26.8456515 C136.805306,28.3891368 136.238042,29.1173453 134.158075,29.1173453 C133.939964,29.1173453 133.706902,29.087443 133.488792,29.0584202 L133.488792,27.3548697 Z M134.73941,17.7747068 L136.805306,17.7747068 L136.805306,16.0711564 L134.73941,16.0711564 L134.73941,17.7747068 Z" id="Fill-11" fill="#7E7B7A"/>
                <path d="M142.245762,18.7353616 C144.616837,18.7353616 146.144492,20.3078697 146.144492,22.7106059 C146.144492,25.0983909 144.616837,26.670899 142.245762,26.670899 C139.888759,26.670899 138.361984,25.0983909 138.361984,22.7106059 C138.361984,20.3078697 139.888759,18.7353616 142.245762,18.7353616 M142.245762,25.1124625 C143.656446,25.1124625 144.078596,23.9040586 144.078596,22.7106059 C144.078596,21.502202 143.656446,20.2929186 142.245762,20.2929186 C140.84915,20.2929186 140.427879,21.502202 140.427879,22.7106059 C140.427879,23.9040586 140.84915,25.1124625 142.245762,25.1124625" id="Fill-13" fill="#7E7B7A"/>
                <path d="M156.892163,25.5058534 L156.86314,25.5058534 C156.382945,26.3211303 155.538645,26.6711629 154.579134,26.6711629 C152.309199,26.6711629 151.203694,24.7195993 151.203694,22.637873 C151.203694,20.6141922 152.32415,18.7356254 154.53516,18.7356254 C155.422554,18.7356254 156.294997,19.1138013 156.761121,19.8569609 L156.790143,19.8569609 L156.790143,16.0708046 L158.85516,16.0708046 L158.85516,26.4671238 L156.892163,26.4671238 L156.892163,25.5058534 Z M155.087472,20.2931824 C153.734834,20.2931824 153.26959,21.4576124 153.26959,22.6959186 C153.26959,23.8752997 153.807831,25.1127264 155.087472,25.1127264 C156.455062,25.1127264 156.86314,23.9183941 156.86314,22.6809674 C156.86314,21.4576124 156.426919,20.2931824 155.087472,20.2931824 L155.087472,20.2931824 Z" id="Fill-15" fill="#7E7B7A"/>
                <path d="M162.112221,23.2053127 C162.170267,24.5157362 162.810528,25.1129023 163.960007,25.1129023 C164.789355,25.1129023 165.458638,24.6028046 165.588801,24.1375603 L167.407564,24.1375603 C166.825349,25.9141075 165.588801,26.6704593 163.887889,26.6704593 C161.515935,26.6704593 160.046326,25.0399055 160.046326,22.7101661 C160.046326,20.4534235 161.603003,18.7349218 163.887889,18.7349218 C166.448052,18.7349218 167.68372,20.8905244 167.538606,23.2053127 L162.112221,23.2053127 Z M165.47271,21.8948893 C165.284502,20.8465505 164.833329,20.2933583 163.828964,20.2933583 C162.5203,20.2933583 162.141244,21.3126743 162.112221,21.8948893 L165.47271,21.8948893 Z" id="Fill-17" fill="#7E7B7A"/>
                <polygon id="Fill-19" fill="#7E7B7A" points="175.319003 17.9928176 172.205648 17.9928176 172.205648 16.0711564 180.716365 16.0711564 180.716365 17.9928176 177.60301 17.9928176 177.60301 26.4665961 175.319003 26.4665961"/>
                <path d="M180.351117,18.9389609 L182.314114,18.9389609 L182.314114,20.3364528 L182.344016,20.3364528 C182.721313,19.391013 183.740629,18.7358013 184.744114,18.7358013 C184.889228,18.7358013 185.063365,18.7648241 185.195287,18.8079186 L185.195287,20.7304593 C185.006199,20.6864853 184.70014,20.6574625 184.453007,20.6574625 C182.940303,20.6574625 182.417013,21.7488958 182.417013,23.0742704 L182.417013,26.4672997 L180.351117,26.4672997 L180.351117,18.9389609 Z" id="Fill-21" fill="#7E7B7A"/>
                <path d="M185.921736,21.2543648 C186.037827,19.3177524 187.769521,18.7355375 189.457241,18.7355375 C190.954993,18.7355375 192.758805,19.0706189 192.758805,20.8753094 L192.758805,24.7925081 C192.758805,25.4767427 192.830922,26.1609772 193.02001,26.4670358 L190.925971,26.4670358 C190.852974,26.2339739 190.794928,25.9859609 190.779977,25.7388274 C190.125645,26.4230619 189.166134,26.6710749 188.249717,26.6710749 C186.823202,26.6710749 185.688674,25.9569381 185.688674,24.4134528 C185.688674,22.7099023 186.968316,22.3027036 188.249717,22.1276873 C189.515287,21.9385993 190.692909,21.9825733 190.692909,21.1373941 C190.692909,20.2491205 190.081671,20.1189577 189.354342,20.1189577 C188.569847,20.1189577 188.060629,20.4390879 187.987632,21.2543648 L185.921736,21.2543648 Z M190.692909,22.782899 C190.343756,23.0889577 189.616427,23.1039088 188.977046,23.22 C188.336785,23.3510423 187.75457,23.5691531 187.75457,24.3263844 C187.75457,25.0985668 188.351736,25.2876547 189.02014,25.2876547 C190.634863,25.2876547 190.692909,24.0062541 190.692909,23.5550814 L190.692909,22.782899 Z" id="Fill-23" fill="#7E7B7A"/>
                <path d="M194.357521,18.9389609 L196.320518,18.9389609 L196.320518,19.9872997 L196.364492,19.9872997 C196.888661,19.143 197.790127,18.7358013 198.66345,18.7358013 C200.860388,18.7358013 201.4127,19.973228 201.4127,21.8368436 L201.4127,26.4672997 L199.346805,26.4672997 L199.346805,22.2150195 C199.346805,20.9775928 198.98358,20.366355 198.023189,20.366355 C196.903612,20.366355 196.423417,20.9916645 196.423417,22.5210782 L196.423417,26.4672997 L194.357521,26.4672997 L194.357521,18.9389609 Z" id="Fill-25" fill="#7E7B7A"/>
                <path d="M204.582342,24.0207655 C204.597293,24.9231107 205.352765,25.2880945 206.168042,25.2880945 C206.76345,25.2880945 207.520681,25.0541531 207.520681,24.3268241 C207.520681,23.7006352 206.662309,23.481645 205.178629,23.1615147 C203.985176,22.89943 202.792603,22.4772801 202.792603,21.1519055 C202.792603,19.2302443 204.45042,18.7350977 206.065143,18.7350977 C207.709769,18.7350977 209.222472,19.2882899 209.382537,21.1378339 L207.418661,21.1378339 C207.360616,20.3366287 206.749378,20.1185179 206.007977,20.1185179 C205.542733,20.1185179 204.858498,20.2055863 204.858498,20.8168241 C204.858498,21.5599837 206.022928,21.6620033 207.20055,21.9381596 C208.408075,22.2151954 209.585697,22.6522964 209.585697,24.0497883 C209.585697,26.0303746 207.869834,26.6706352 206.153091,26.6706352 C204.407326,26.6706352 202.705534,26.0154235 202.618466,24.0207655 L204.582342,24.0207655 Z" id="Fill-27" fill="#7E7B7A"/>
                <path d="M210.791902,18.9389609 L212.754899,18.9389609 L212.754899,19.9002313 L212.784801,19.9002313 C213.279068,19.0990261 214.093466,18.7358013 215.023954,18.7358013 C217.380958,18.7358013 218.443368,20.6425114 218.443368,22.7831629 C218.443368,24.792772 217.337863,26.6713388 215.140925,26.6713388 C214.239459,26.6713388 213.380208,26.2773322 212.886821,25.5350521 L212.857798,25.5350521 L212.857798,29.1171694 L210.791902,29.1171694 L210.791902,18.9389609 Z M216.378352,22.7251173 C216.378352,21.530785 215.898156,20.2933583 214.573661,20.2933583 C213.221023,20.2933583 212.784801,21.5017622 212.784801,22.7251173 C212.784801,23.9475928 213.250046,25.1129023 214.587733,25.1129023 C215.94213,25.1129023 216.378352,23.9475928 216.378352,22.7251173 L216.378352,22.7251173 Z" id="Fill-29" fill="#7E7B7A"/>
                <path d="M219.591,21.2543648 C219.707091,19.3177524 221.438785,18.7355375 223.126505,18.7355375 C224.624257,18.7355375 226.428068,19.0706189 226.428068,20.8753094 L226.428068,24.7925081 C226.428068,25.4767427 226.500186,26.1609772 226.689274,26.4670358 L224.595235,26.4670358 C224.522238,26.2339739 224.464192,25.9859609 224.449241,25.7388274 C223.794909,26.4230619 222.835397,26.6710749 221.91898,26.6710749 C220.492466,26.6710749 219.357938,25.9569381 219.357938,24.4134528 C219.357938,22.7099023 220.63758,22.3027036 221.91898,22.1276873 C223.18455,21.9385993 224.362173,21.9825733 224.362173,21.1373941 C224.362173,20.2491205 223.751814,20.1189577 223.023606,20.1189577 C222.239111,20.1189577 221.729893,20.4390879 221.656896,21.2543648 L219.591,21.2543648 Z M224.362173,22.782899 C224.01302,23.0889577 223.285691,23.1039088 222.646309,23.22 C222.006049,23.3510423 221.423834,23.5691531 221.423834,24.3263844 C221.423834,25.0985668 222.021,25.2876547 222.689404,25.2876547 C224.304127,25.2876547 224.362173,24.0062541 224.362173,23.5550814 L224.362173,22.782899 Z" id="Fill-31" fill="#7E7B7A"/>
                <path d="M228.026785,18.9389609 L229.989782,18.9389609 L229.989782,20.3364528 L230.019684,20.3364528 C230.39698,19.391013 231.416296,18.7358013 232.419782,18.7358013 C232.564896,18.7358013 232.739033,18.7648241 232.870954,18.8079186 L232.870954,20.7304593 C232.681866,20.6864853 232.375808,20.6574625 232.128674,20.6574625 C230.615971,20.6574625 230.092681,21.7488958 230.092681,23.0742704 L230.092681,26.4672997 L228.026785,26.4672997 L228.026785,18.9389609 Z" id="Fill-33" fill="#7E7B7A"/>
                <path d="M235.124443,23.2053127 C235.182489,24.5157362 235.822749,25.1129023 236.972228,25.1129023 C237.801577,25.1129023 238.47086,24.6028046 238.601023,24.1375603 L240.419785,24.1375603 C239.83757,25.9141075 238.601023,26.6704593 236.899231,26.6704593 C234.528156,26.6704593 233.058547,25.0399055 233.058547,22.7101661 C233.058547,20.4534235 234.615225,18.7349218 236.899231,18.7349218 C239.460274,18.7349218 240.695941,20.8905244 240.550827,23.2053127 L235.124443,23.2053127 Z M238.484932,21.8948893 C238.295844,20.8465505 237.84555,20.2933583 236.841186,20.2933583 C235.532521,20.2933583 235.153466,21.3126743 235.124443,21.8948893 L238.484932,21.8948893 Z" id="Fill-35" fill="#7E7B7A"/>
                <path d="M241.771192,18.9389609 L243.734189,18.9389609 L243.734189,19.9872997 L243.778163,19.9872997 C244.302332,19.143 245.203798,18.7358013 246.077121,18.7358013 C248.274059,18.7358013 248.825492,19.973228 248.825492,21.8368436 L248.825492,26.4672997 L246.760476,26.4672997 L246.760476,22.2150195 C246.760476,20.9775928 246.397251,20.366355 245.43686,20.366355 C244.316404,20.366355 243.837088,20.9916645 243.837088,22.5210782 L243.837088,26.4672997 L241.771192,26.4672997 L241.771192,18.9389609 Z" id="Fill-37" fill="#7E7B7A"/>
                <path d="M255.516479,21.5890065 C255.385436,20.7447068 254.846316,20.2935342 253.988824,20.2935342 C252.665208,20.2935342 252.228987,21.6329805 252.228987,22.7393648 C252.228987,23.8167264 252.650257,25.1130782 253.94485,25.1130782 C254.905241,25.1130782 255.458433,24.5018404 255.588596,23.5836645 L257.582375,23.5836645 C257.32029,25.579202 255.937749,26.6706352 253.958922,26.6706352 C251.689866,26.6706352 250.163091,25.0691042 250.163091,22.8123616 C250.163091,20.4685505 251.559704,18.7350977 254.002896,18.7350977 C255.777684,18.7350977 257.407358,19.6673453 257.538401,21.5890065 L255.516479,21.5890065 Z" id="Fill-39" fill="#7E7B7A"/>
                <mask id="mask-2" fill="white">
                    <use xlink:href="#path-1"/>
                </mask>
                <g id="Clip-42"/>
                <path d="M258.800717,17.7742671 L260.866612,17.7742671 L260.866612,16.0707166 L258.800717,16.0707166 L258.800717,17.7742671 Z M258.801596,26.4670358 L260.867492,26.4670358 L260.867492,18.9386971 L258.801596,18.9386971 L258.801596,26.4670358 Z" id="Fill-41" fill="#7E7B7A" mask="url(#mask-2)"/>
                <path d="M262.408954,21.2543648 C262.525046,19.3177524 264.256739,18.7355375 265.944459,18.7355375 C267.442212,18.7355375 269.246023,19.0706189 269.246023,20.8753094 L269.246023,24.7925081 C269.246023,25.4767427 269.31814,26.1609772 269.507228,26.4670358 L267.413189,26.4670358 C267.340192,26.2339739 267.282147,25.9859609 267.267195,25.7388274 C266.612863,26.4230619 265.652472,26.6710749 264.736055,26.6710749 C263.31042,26.6710749 262.175893,25.9569381 262.175893,24.4134528 C262.175893,22.7099023 263.455534,22.3027036 264.736055,22.1276873 C266.002505,21.9385993 267.180127,21.9825733 267.180127,21.1373941 C267.180127,20.2491205 266.568889,20.1189577 265.84156,20.1189577 C265.057065,20.1189577 264.547847,20.4390879 264.47485,21.2543648 L262.408954,21.2543648 Z M267.180127,22.782899 C266.830974,23.0889577 266.103645,23.1039088 265.464264,23.22 C264.824003,23.3510423 264.241788,23.5691531 264.241788,24.3263844 C264.241788,25.0985668 264.838954,25.2876547 265.507358,25.2876547 C267.122081,25.2876547 267.180127,24.0062541 267.180127,23.5550814 L267.180127,22.782899 Z" id="Fill-43" fill="#7E7B7A" mask="url(#mask-2)"/>
                <path d="M93.8134788,43.2439739 C93.3623062,44.4523779 92.6499283,44.9475244 91.2242932,44.9475244 C90.8021433,44.9475244 90.3799935,44.9185016 89.9578436,44.8745277 L89.9578436,43.1709772 C90.3509707,43.2 90.7581694,43.2589251 91.1653681,43.2439739 C91.8786254,43.1709772 92.1108078,42.4286971 91.8786254,41.8315309 L89.2305147,34.769316 L91.4424039,34.769316 L93.1441954,39.9239414 L93.1723388,39.9239414 L94.8169642,34.769316 L96.9549772,34.769316 L93.8134788,43.2439739 Z" id="Fill-44" fill="#7E7B7A" mask="url(#mask-2)"/>
                <path d="M101.91427,31.9013355 L106.598375,31.9013355 C109.18756,31.9013355 110.191046,33.5468404 110.191046,35.2354397 C110.191046,36.9249186 109.18756,38.5704235 106.598375,38.5704235 L104.198277,38.5704235 L104.198277,42.2976547 L101.91427,42.2976547 L101.91427,31.9013355 Z M104.198277,36.7929967 L105.972186,36.7929967 C107.034596,36.7929967 107.980915,36.5608143 107.980915,35.2354397 C107.980915,33.9109446 107.034596,33.6778827 105.972186,33.6778827 L104.198277,33.6778827 L104.198277,36.7929967 Z" id="Fill-45" fill="#7E7B7A" mask="url(#mask-2)"/>
                <path d="M111.397075,34.7695798 L113.360072,34.7695798 L113.360072,36.1670717 L113.389974,36.1670717 C113.76727,35.2216319 114.785707,34.5664202 115.790072,34.5664202 C115.935186,34.5664202 116.109322,34.595443 116.241244,34.6385375 L116.241244,36.5610782 C116.052156,36.5171042 115.746098,36.4880814 115.498964,36.4880814 C113.985381,36.4880814 113.462971,37.5795147 113.462971,38.9048893 L113.462971,42.2979186 L111.397075,42.2979186 L111.397075,34.7695798 Z" id="Fill-46" fill="#7E7B7A" mask="url(#mask-2)"/>
                <path d="M120.44445,34.5660684 C122.815524,34.5660684 124.343179,36.1385765 124.343179,38.5404332 C124.343179,40.9290977 122.815524,42.5016059 120.44445,42.5016059 C118.087446,42.5016059 116.560671,40.9290977 116.560671,38.5404332 C116.560671,36.1385765 118.087446,34.5660684 120.44445,34.5660684 M120.44445,40.9431694 C121.855134,40.9431694 122.277283,39.7347655 122.277283,38.5404332 C122.277283,37.3320293 121.855134,36.1236254 120.44445,36.1236254 C119.047837,36.1236254 118.626567,37.3320293 118.626567,38.5404332 C118.626567,39.7347655 119.047837,40.9431694 120.44445,40.9431694" id="Fill-47" fill="#7E7B7A" mask="url(#mask-2)"/>
                <path d="M128.296964,34.7695798 L129.810547,34.7695798 L129.810547,36.153 L128.296964,36.153 L128.296964,39.8811107 C128.296964,40.5794169 128.47198,40.7544332 129.170287,40.7544332 C129.388397,40.7544332 129.592436,40.7394821 129.810547,40.6955081 L129.810547,42.3119902 C129.460515,42.3709153 129.009342,42.384987 128.603023,42.384987 C127.337453,42.384987 126.231068,42.0938795 126.231068,40.5943681 L126.231068,36.153 L124.98045,36.153 L124.98045,34.7695798 L126.231068,34.7695798 L126.231068,32.5128371 L128.296964,32.5128371 L128.296964,34.7695798 Z" id="Fill-48" fill="#7E7B7A" mask="url(#mask-2)"/>
                <path d="M132.500257,39.0359316 C132.558303,40.346355 133.198564,40.9435212 134.348042,40.9435212 C135.177391,40.9435212 135.846674,40.4334235 135.976837,39.9681792 L137.796479,39.9681792 C137.213384,41.7447264 135.976837,42.5010782 134.275046,42.5010782 C131.903971,42.5010782 130.434362,40.8705244 130.434362,38.540785 C130.434362,36.2840423 131.991039,34.5664202 134.275046,34.5664202 C136.836088,34.5664202 138.071756,36.7211433 137.926642,39.0359316 L132.500257,39.0359316 Z M135.860746,37.7255081 C135.671658,36.6771694 135.221365,36.1239772 134.217,36.1239772 C132.908336,36.1239772 132.52928,37.1432932 132.500257,37.7255081 L135.860746,37.7255081 Z" id="Fill-49" fill="#7E7B7A" mask="url(#mask-2)"/>
                <path d="M144.267684,37.4196254 C144.136642,36.5753257 143.597521,36.1241531 142.740029,36.1241531 C141.416414,36.1241531 140.980192,37.4635993 140.980192,38.5699837 C140.980192,39.6473453 141.401463,40.9436971 142.696055,40.9436971 C143.656446,40.9436971 144.209638,40.3324593 144.339801,39.4142834 L146.33358,39.4142834 C146.071495,41.4098208 144.688954,42.5012541 142.710127,42.5012541 C140.441072,42.5012541 138.914296,40.8997231 138.914296,38.6429805 C138.914296,36.2991694 140.310909,34.5657166 142.754101,34.5657166 C144.528889,34.5657166 146.158564,35.4979642 146.289606,37.4196254 L144.267684,37.4196254 Z" id="Fill-50" fill="#7E7B7A" mask="url(#mask-2)"/>
                <path d="M152.616577,37.4196254 C152.485534,36.5753257 151.947293,36.1241531 151.088922,36.1241531 C149.765306,36.1241531 149.329085,37.4635993 149.329085,38.5699837 C149.329085,39.6473453 149.750355,40.9436971 151.044948,40.9436971 C152.005339,40.9436971 152.558531,40.3324593 152.688694,39.4142834 L154.682472,39.4142834 C154.420388,41.4098208 153.037847,42.5012541 151.05902,42.5012541 C148.790844,42.5012541 147.263189,40.8997231 147.263189,38.6429805 C147.263189,36.2991694 148.659801,34.5657166 151.102993,34.5657166 C152.878661,34.5657166 154.507456,35.4979642 154.638498,37.4196254 L152.616577,37.4196254 Z" id="Fill-51" fill="#7E7B7A" mask="url(#mask-2)"/>
                <path d="M155.900814,33.604886 L157.96759,33.604886 L157.96759,31.9013355 L155.900814,31.9013355 L155.900814,33.604886 Z M155.901694,42.2976547 L157.968469,42.2976547 L157.968469,34.769316 L155.901694,34.769316 L155.901694,42.2976547 Z" id="Fill-52" fill="#7E7B7A" mask="url(#mask-2)"/>
                <path d="M163.247717,34.5660684 C165.618792,34.5660684 167.146446,36.1385765 167.146446,38.5404332 C167.146446,40.9290977 165.618792,42.5016059 163.247717,42.5016059 C160.890713,42.5016059 159.363938,40.9290977 159.363938,38.5404332 C159.363938,36.1385765 160.890713,34.5660684 163.247717,34.5660684 L163.247717,34.5660684 Z M163.247717,40.9431694 C164.658401,40.9431694 165.08055,39.7347655 165.08055,38.5404332 C165.08055,37.3320293 164.658401,36.1236254 163.247717,36.1236254 C161.851104,36.1236254 161.429834,37.3320293 161.429834,38.5404332 C161.429834,39.7347655 161.851104,40.9431694 163.247717,40.9431694 L163.247717,40.9431694 Z M163.59599,33.8378599 L162.157163,33.8378599 L163.553775,31.7702052 L165.836902,31.7702052 L163.59599,33.8378599 Z" id="Fill-53" fill="#7E7B7A" mask="url(#mask-2)"/>
                <path d="M168.483342,34.7695798 L170.446339,34.7695798 L170.446339,35.8179186 L170.490313,35.8179186 C171.014482,34.9736189 171.915948,34.5664202 172.78927,34.5664202 C174.985329,34.5664202 175.537642,35.8038469 175.537642,37.6674625 L175.537642,42.2979186 L173.472625,42.2979186 L173.472625,38.0456384 C173.472625,36.8082117 173.109401,36.1969739 172.14901,36.1969739 C171.028554,36.1969739 170.549238,36.8222834 170.549238,38.3516971 L170.549238,42.2979186 L168.483342,42.2979186 L168.483342,34.7695798 Z" id="Fill-54" fill="#7E7B7A" mask="url(#mask-2)"/>
                <path d="M186.518638,41.3364723 L186.489616,41.3364723 C186.00942,42.1517492 185.165121,42.5017818 184.20473,42.5017818 C181.935674,42.5017818 180.830169,40.5502182 180.830169,38.4684919 C180.830169,36.4448111 181.950625,34.5662443 184.161635,34.5662443 C185.049029,34.5662443 185.921472,34.9444202 186.387596,35.6875798 L186.416619,35.6875798 L186.416619,31.9014235 L188.481635,31.9014235 L188.481635,42.2977427 L186.518638,42.2977427 L186.518638,41.3364723 Z M184.713948,36.1238013 C183.361309,36.1238013 182.896065,37.2891107 182.896065,38.5265375 C182.896065,39.7059186 183.434306,40.9433453 184.713948,40.9433453 C186.081537,40.9433453 186.489616,39.749013 186.489616,38.5115863 C186.489616,37.2891107 186.053394,36.1238013 184.713948,36.1238013 L184.713948,36.1238013 Z" id="Fill-55" fill="#7E7B7A" mask="url(#mask-2)"/>
                <path d="M191.738785,39.0359316 C191.796831,40.346355 192.437091,40.9435212 193.58657,40.9435212 C194.415919,40.9435212 195.085202,40.4334235 195.215365,39.9681792 L197.035007,39.9681792 C196.451912,41.7447264 195.215365,42.5010782 193.514453,42.5010782 C191.142498,42.5010782 189.672889,40.8705244 189.672889,38.540785 C189.672889,36.2840423 191.230446,34.5664202 193.514453,34.5664202 C196.074616,34.5664202 197.310283,36.7211433 197.165169,39.0359316 L191.738785,39.0359316 Z M195.099274,37.7255081 C194.911065,36.6771694 194.459893,36.1239772 193.455528,36.1239772 C192.146863,36.1239772 191.767808,37.1432932 191.738785,37.7255081 L195.099274,37.7255081 Z" id="Fill-56" fill="#7E7B7A" mask="url(#mask-2)"/>
                <path d="M202.647313,31.9013355 L207.127378,31.9013355 C209.818583,31.9013355 211.840505,33.5899349 211.840505,37.0410098 C211.840505,40.0549837 210.298779,42.2976547 207.127378,42.2976547 L202.647313,42.2976547 L202.647313,31.9013355 Z M204.931319,40.375114 L206.967313,40.375114 C208.290928,40.375114 209.556498,39.5598371 209.556498,37.2591205 C209.556498,35.162443 208.829169,33.8238762 206.560114,33.8238762 L204.931319,33.8238762 L204.931319,40.375114 Z" id="Fill-57" fill="#7E7B7A" mask="url(#mask-2)"/>
                <path d="M213.119443,37.0850717 C213.236414,35.1484593 214.967228,34.5662443 216.654948,34.5662443 C218.1527,34.5662443 219.956511,34.9013257 219.956511,36.7060163 L219.956511,40.623215 C219.956511,41.3074495 220.028629,41.991684 220.218596,42.2977427 L218.122798,42.2977427 C218.050681,42.0646808 217.992635,41.8166678 217.977684,41.5695342 C217.323352,42.2537687 216.36384,42.5017818 215.447423,42.5017818 C214.020909,42.5017818 212.886381,41.787645 212.886381,40.2441596 C212.886381,38.5406091 214.166902,38.1334104 215.447423,37.9583941 C216.712993,37.7693062 217.891495,37.8132801 217.891495,36.968101 C217.891495,36.0798274 217.280257,35.948785 216.552049,35.948785 C215.767554,35.948785 215.258336,36.2697948 215.185339,37.0850717 L213.119443,37.0850717 Z M217.891495,38.6136059 C217.541463,38.9196645 216.814134,38.9346156 216.174752,39.0507068 C215.534492,39.1817492 214.952277,39.3998599 214.952277,40.1570912 C214.952277,40.9292736 215.549443,41.1183616 216.217847,41.1183616 C217.83257,41.1183616 217.891495,39.8369609 217.891495,39.3857883 L217.891495,38.6136059 Z" id="Fill-58" fill="#7E7B7A" mask="url(#mask-2)"/>
                <path d="M224.172997,34.7695798 L225.68658,34.7695798 L225.68658,36.153 L224.172997,36.153 L224.172997,39.8811107 C224.172997,40.5794169 224.348013,40.7544332 225.046319,40.7544332 C225.26443,40.7544332 225.468469,40.7394821 225.68658,40.6955081 L225.68658,42.3119902 C225.336547,42.3709153 224.886254,42.384987 224.479055,42.384987 C223.212606,42.384987 222.107101,42.0938795 222.107101,40.5943681 L222.107101,36.153 L220.856482,36.153 L220.856482,34.7695798 L222.107101,34.7695798 L222.107101,32.5128371 L224.172997,32.5128371 L224.172997,34.7695798 Z" id="Fill-59" fill="#7E7B7A" mask="url(#mask-2)"/>
                <path d="M230.325919,34.5660684 C232.696993,34.5660684 234.224648,36.1385765 234.224648,38.5404332 C234.224648,40.9290977 232.696993,42.5016059 230.325919,42.5016059 C227.968915,42.5016059 226.44214,40.9290977 226.44214,38.5404332 C226.44214,36.1385765 227.968915,34.5660684 230.325919,34.5660684 M230.325919,40.9431694 C231.737482,40.9431694 232.158752,39.7347655 232.158752,38.5404332 C232.158752,37.3320293 231.737482,36.1236254 230.325919,36.1236254 C228.929306,36.1236254 228.508036,37.3320293 228.508036,38.5404332 C228.508036,39.7347655 228.929306,40.9431694 230.325919,40.9431694" id="Fill-60" fill="#7E7B7A" mask="url(#mask-2)"/>
                <path d="M237.160788,39.8514723 C237.175739,40.7538176 237.931212,41.1179218 238.746489,41.1179218 C239.341896,41.1179218 240.099127,40.8848599 240.099127,40.1575309 C240.099127,39.531342 239.240756,39.3123518 237.757075,38.9922215 C236.563622,38.7301368 235.371049,38.307987 235.371049,36.9826124 C235.371049,35.0609511 237.029746,34.5658046 238.64359,34.5658046 C240.288215,34.5658046 241.800919,35.1189967 241.960984,36.9685407 L239.997987,36.9685407 C239.939062,36.1673355 239.327824,35.9492248 238.586423,35.9492248 C238.121179,35.9492248 237.436945,36.0362932 237.436945,36.6475309 C237.436945,37.3906906 238.601375,37.4927101 239.778997,37.7688664 C240.986521,38.0459023 242.164143,38.4830033 242.164143,39.8804951 C242.164143,41.8610814 240.44828,42.501342 238.731537,42.501342 C236.985772,42.501342 235.28398,41.8461303 235.196912,39.8514723 L237.160788,39.8514723 Z" id="Fill-61" fill="#7E7B7A" mask="url(#mask-2)"/>
                <path d="M95.472,57.1670912 L95.4429772,57.1670912 C94.9627818,57.9823681 94.1184821,58.3324007 93.1580912,58.3324007 C90.8890358,58.3324007 89.7835309,56.3808371 89.7835309,54.2991107 C89.7835309,52.27543 90.903987,50.3968632 93.1149967,50.3968632 C94.0023909,50.3968632 94.8748339,50.7750391 95.3400782,51.5181987 L95.3699805,51.5181987 L95.3699805,47.7320423 L97.4349967,47.7320423 L97.4349967,58.1283616 L95.472,58.1283616 L95.472,57.1670912 Z M93.6673094,51.9544202 C92.314671,51.9544202 91.8494267,53.1188502 91.8494267,54.3571564 C91.8494267,55.5365375 92.3876678,56.7739642 93.6673094,56.7739642 C95.034899,56.7739642 95.4429772,55.5796319 95.4429772,54.3422052 C95.4429772,53.1188502 95.0067557,51.9544202 93.6673094,51.9544202 L93.6673094,51.9544202 Z" id="Fill-62" fill="#7E7B7A" mask="url(#mask-2)"/>
                <path d="M100.692147,54.8665505 C100.750192,56.1769739 101.390453,56.7741401 102.539932,56.7741401 C103.36928,56.7741401 104.038564,56.2640423 104.168726,55.798798 L105.988368,55.798798 C105.405274,57.5753453 104.168726,58.3316971 102.467814,58.3316971 C100.09586,58.3316971 98.6262508,56.7011433 98.6262508,54.3714039 C98.6262508,52.1146612 100.183808,50.3970391 102.467814,50.3970391 C105.027977,50.3970391 106.263645,52.5517622 106.118531,54.8665505 L100.692147,54.8665505 Z M104.052635,53.556127 C103.863547,52.5077883 103.413254,51.9545961 102.408889,51.9545961 C101.100225,51.9545961 100.721169,52.9739121 100.692147,53.556127 L104.052635,53.556127 Z" id="Fill-63" fill="#7E7B7A" mask="url(#mask-2)"/>
                <path d="M114.437433,47.7319544 L116.778606,47.7319544 L120.663264,58.1282736 L118.292189,58.1282736 L117.505935,55.8134853 L113.622156,55.8134853 L112.806879,58.1282736 L110.49473,58.1282736 L114.437433,47.7319544 Z M114.218443,54.1090554 L116.909648,54.1090554 L115.600104,50.2947557 L115.571961,50.2947557 L114.218443,54.1090554 Z" id="Fill-64" fill="#86AF9A" mask="url(#mask-2)"/>
                <path d="M121.3453,50.6001987 L123.308296,50.6001987 L123.308296,51.6485375 L123.35227,51.6485375 C123.87644,50.8042378 124.777906,50.3970391 125.651228,50.3970391 C127.848166,50.3970391 128.400479,51.6344658 128.400479,53.4980814 L128.400479,58.1285375 L126.334583,58.1285375 L126.334583,53.8762573 C126.334583,52.6388306 125.971358,52.0275928 125.010967,52.0275928 C123.890511,52.0275928 123.411195,52.6529023 123.411195,54.182316 L123.411195,58.1285375 L121.3453,58.1285375 L121.3453,50.6001987 Z" id="Fill-65" fill="#86AF9A" mask="url(#mask-2)"/>
                <path d="M135.337984,57.1670912 L135.308961,57.1670912 C134.828765,57.9823681 133.984466,58.3324007 133.024954,58.3324007 C130.75502,58.3324007 129.649515,56.3808371 129.649515,54.2991107 C129.649515,52.27543 130.769971,50.3968632 132.98098,50.3968632 C133.868375,50.3968632 134.740818,50.7750391 135.206062,51.5181987 L135.235964,51.5181987 L135.235964,47.7320423 L137.30098,47.7320423 L137.30098,58.1283616 L135.337984,58.1283616 L135.337984,57.1670912 Z M133.533293,51.9544202 C132.180655,51.9544202 131.71541,53.1188502 131.71541,54.3571564 C131.71541,55.5365375 132.253651,56.7739642 133.533293,56.7739642 C134.900883,56.7739642 135.308961,55.5796319 135.308961,54.3422052 C135.308961,53.1188502 134.872739,51.9544202 133.533293,51.9544202 L133.533293,51.9544202 Z" id="Fill-66" fill="#86AF9A" mask="url(#mask-2)"/>
                <path d="M138.769094,52.9156906 C138.886065,50.9790782 140.616879,50.3968632 142.304599,50.3968632 C143.802352,50.3968632 145.606163,50.7319446 145.606163,52.5366352 L145.606163,56.4538339 C145.606163,57.1380684 145.67916,57.8223029 145.868248,58.1283616 L143.773329,58.1283616 C143.700332,57.8952997 143.642287,57.6472866 143.627336,57.4001531 C142.973003,58.0843876 142.013492,58.3324007 141.097075,58.3324007 C139.67056,58.3324007 138.536033,57.6182638 138.536033,56.0747785 C138.536033,54.371228 139.816554,53.9640293 141.097075,53.789013 C142.362645,53.5999251 143.541147,53.643899 143.541147,52.7987199 C143.541147,51.9104463 142.929909,51.7794039 142.2017,51.7794039 C141.417205,51.7794039 140.907987,52.1004137 140.83499,52.9156906 L138.769094,52.9156906 Z M143.541147,54.4442248 C143.191114,54.7502834 142.463785,54.7652345 141.824404,54.8813257 C141.184143,55.0123681 140.601928,55.2304788 140.601928,55.9877101 C140.601928,56.7598925 141.199094,56.9489805 141.868378,56.9489805 C143.482221,56.9489805 143.541147,55.6675798 143.541147,55.2164072 L143.541147,54.4442248 Z" id="Fill-67" fill="#86AF9A" mask="url(#mask-2)"/>
                <polygon id="Fill-68" fill="#86AF9A" mask="url(#mask-2)" points="147.261694 58.1282736 149.32759 58.1282736 149.32759 47.7319544 147.261694 47.7319544"/>
                <path d="M158.012003,58.1280977 L156.049007,58.1280977 L156.049007,57.079759 L156.005033,57.079759 C155.480863,57.9240586 154.579397,58.3321368 153.706075,58.3321368 C151.509137,58.3321368 150.956824,57.0947101 150.956824,55.2310945 L150.956824,50.599759 L153.02272,50.599759 L153.02272,54.8520391 C153.02272,56.0894658 153.385945,56.7007036 154.346336,56.7007036 C155.466792,56.7007036 155.946107,56.0753941 155.946107,54.5459805 L155.946107,50.599759 L158.012003,50.599759 L158.012003,58.1280977 Z" id="Fill-69" fill="#86AF9A" mask="url(#mask-2)"/>
                <path d="M164.702638,53.2502443 C164.571596,52.4059446 164.033355,51.954772 163.174984,51.954772 C161.851368,51.954772 161.415147,53.2942182 161.415147,54.4006026 C161.415147,55.4779642 161.836417,56.774316 163.13101,56.774316 C164.091401,56.774316 164.644593,56.1630782 164.774756,55.2449023 L166.768534,55.2449023 C166.50645,57.2404397 165.123909,58.331873 163.145081,58.331873 C160.876026,58.331873 159.349251,56.730342 159.349251,54.4735993 C159.349251,52.1297883 160.745863,50.3963355 163.189055,50.3963355 C164.964723,50.3963355 166.592638,51.3285831 166.72456,53.2502443 L164.702638,53.2502443 Z" id="Fill-70" fill="#86AF9A" mask="url(#mask-2)"/>
                <path d="M169.369769,49.6683029 L167.930062,49.6683029 L169.326674,47.6006482 L171.610681,47.6006482 L169.369769,49.6683029 Z M167.988107,58.1288893 L170.054883,58.1288893 L170.054883,50.6005505 L167.988107,50.6005505 L167.988107,58.1288893 Z" id="Fill-71" fill="#86AF9A" mask="url(#mask-2)"/>
                <path d="M171.594938,52.9156906 C171.711909,50.9790782 173.442723,50.3968632 175.130443,50.3968632 C176.628195,50.3968632 178.432886,50.7319446 178.432886,52.5366352 L178.432886,56.4538339 C178.432886,57.1380684 178.505003,57.8223029 178.694091,58.1283616 L176.599173,58.1283616 C176.527055,57.8952997 176.46813,57.6472866 176.454059,57.4001531 C175.798847,58.0843876 174.839336,58.3324007 173.922919,58.3324007 C172.496404,58.3324007 171.361876,57.6182638 171.361876,56.0747785 C171.361876,54.371228 172.642397,53.9640293 173.922919,53.789013 C175.188489,53.5999251 176.36699,53.643899 176.36699,52.7987199 C176.36699,51.9104463 175.755752,51.7794039 175.027544,51.7794039 C174.243049,51.7794039 173.733831,52.1004137 173.660834,52.9156906 L171.594938,52.9156906 Z M176.36699,54.4442248 C176.016958,54.7502834 175.289629,54.7652345 174.650248,54.8813257 C174.009987,55.0123681 173.427772,55.2304788 173.427772,55.9877101 C173.427772,56.7598925 174.024938,56.9489805 174.693342,56.9489805 C176.308065,56.9489805 176.36699,55.6675798 176.36699,55.2164072 L176.36699,54.4442248 Z" id="Fill-72" fill="#86AF9A" mask="url(#mask-2)"/>
                <path d="M74.0063844,25.5207166 C74.0063844,24.7107166 73.5895114,23.9517264 72.8885668,23.4820847 L38.5484365,0.4652443 C38.0858306,0.153908795 37.5449511,0 37.0031922,0 C36.4614332,0 35.9196743,0.153908795 35.4570684,0.4652443 L1.11781759,23.4820847 C0.416872964,23.9517264 0,24.7107166 0,25.5207166 L0,25.5215961 L0,48.5058958 C0,49.3167752 0.415114007,50.0757655 1.11781759,50.5454072 L35.4570684,73.5622476 C35.9187948,73.8718241 36.4605537,74.0266124 37.0005537,74.0266124 L37.0031922,74.0266124 L37.0058306,74.0266124 C37.5458306,74.0266124 38.0867101,73.8718241 38.5484365,73.5622476 L72.8885668,50.5454072 C73.5903909,50.0757655 74.0063844,49.3167752 74.0063844,48.5058958 L74.0063844,25.5215961 L74.0063844,25.5207166 Z M39.6662541,7.36211726 L66.7612378,25.5224756 L54.2119544,33.9417264 L39.6662541,24.1874267 L39.6662541,7.36211726 Z M34.3401303,7.36211726 L34.3401303,24.1874267 L19.7935505,33.9417264 L7.2442671,25.5224756 L34.3401303,7.36211726 Z M34.3401303,66.6653746 L7.24602606,48.5050163 L16.4805537,42.3152443 L11.8949511,39.2361889 L5.32084691,43.6476547 L5.32084691,30.3807166 L34.3401303,49.8506189 L34.3401303,66.6653746 Z M37.0058306,45.486645 L37.0031922,45.484886 L37.0005537,45.486645 L24.3773941,37.0172638 L37.0005537,28.5522801 L37.0031922,28.5540391 L37.0058306,28.5522801 L49.6289902,37.0172638 L37.0058306,45.486645 Z M68.6855375,43.6476547 L62.1105537,39.2361889 L57.5258306,42.3152443 L66.7603583,48.5050163 L39.6662541,66.6653746 L39.6662541,49.8506189 L68.6855375,30.3807166 L68.6855375,43.6476547 Z" id="Fill-73" fill="#86AF9A" mask="url(#mask-2)"/>
            </g>
        </g>
    </g>
</svg>